<?xml version="1.0" encoding="utf-8"?>
<!-- Generator: Adobe Illustrator 26.5.3, SVG Export Plug-In . SVG Version: 6.00 Build 0)  -->
<svg version="1.1" xmlns="http://www.w3.org/2000/svg" xmlns:xlink="http://www.w3.org/1999/xlink" x="0px" y="0px"
	 viewBox="0 0 1000 1330" style="enable-background:new 0 0 1000 1330;" xml:space="preserve">
<style type="text/css">
	.st0{fill:#F5F6F7;}
	.st1{fill:url(#SVGID_1_);}
	.st2{fill:url(#SVGID_00000081612223080228747320000000640669743998022021_);fill-opacity:0.2;}
	.st3{fill-rule:evenodd;clip-rule:evenodd;fill:#20252B;}
	.st4{clip-path:url(#SVGID_00000086671432477037568890000016925425076736307892_);fill:#F5F6F7;}
	
		.st5{clip-path:url(#SVGID_00000086671432477037568890000016925425076736307892_);fill:url(#SVGID_00000057127272627414516330000005667312390830619783_);}
	
		.st6{clip-path:url(#SVGID_00000086671432477037568890000016925425076736307892_);fill:url(#SVGID_00000074430206669785576300000011355688280674168467_);fill-opacity:0.5;}
	.st7{fill:#1F252B;}
</style>
<g id="Layer_1">
</g>
<g id="Layer_2">
	<rect x="-3.5" y="-0.5" class="st0" width="1007" height="610"/>
	
		<radialGradient id="SVGID_1_" cx="-6.632274e-03" cy="1165.3156" r="1" gradientTransform="matrix(1508.0009 59.3948 20.6057 -523.1674 -24111.6309 610144.125)" gradientUnits="userSpaceOnUse">
		<stop  offset="0" style="stop-color:#EF98CF;stop-opacity:0.19"/>
		<stop  offset="1" style="stop-color:#FFFFFF;stop-opacity:0"/>
	</radialGradient>
	<rect x="-3.5" y="-0.5" class="st1" width="1007" height="610"/>
	
		<radialGradient id="SVGID_00000080203708226016292170000012473366295115399561_" cx="-3.315954e-02" cy="1164.7611" r="1" gradientTransform="matrix(-1351.5013 432.0469 202.2519 632.6714 -234616.4375 -736852.875)" gradientUnits="userSpaceOnUse">
		<stop  offset="0" style="stop-color:#FF837A"/>
		<stop  offset="1" style="stop-color:#FFFFFF;stop-opacity:0"/>
	</radialGradient>
	
		<rect x="-3.5" y="-0.5" style="fill:url(#SVGID_00000080203708226016292170000012473366295115399561_);fill-opacity:0.2;" width="1007" height="610"/>
	<rect x="-1.1" y="482.4" class="st3" width="1000" height="899.6"/>
	<g>
		<defs>
			<path id="SVGID_00000025440868396762593910000000966044212596718011_" d="M705.8,1084.8L634,743.3c-3.9-18.7-22.2-30.7-40.9-26.8
				c-0.1,0-0.1,0-0.2,0l-101.3,21.8c-18.6,4.1-30.5,22.4-26.6,41.1l71.8,341.5c3.3,16.1,17.4,27.6,33.8,27.7c2.5,0,4.9-0.3,7.3-0.8
				l101.3-21.8C697.9,1121.9,709.8,1103.5,705.8,1084.8z M498.9,772.3c0-0.1,0-0.2,0-0.2l101.3-21.6l7.2,34.3l-101.3,21.8
				L498.9,772.3z M513.2,840.4l101.3-21.7l7.2,34.4l-101.2,21.8L513.2,840.4z M527.6,908.8L628.9,887l28.8,136.8l-101.3,21.8
				L527.6,908.8z M672,1092.1l-101.3,21.6l-7.2-34.3l101.3-21.8l7.2,34.3C672,1092.1,672,1092.1,672,1092.1z M429.6,733.1H325.8
				c-19.1,0-34.6,15.5-34.6,34.6v346.2c0,19.1,15.5,34.6,34.6,34.6h103.9c19.1,0,34.6-15.5,34.6-34.6V767.7
				C464.3,748.6,448.8,733.1,429.6,733.1z M325.8,767.7h103.9v34.6H325.8V767.7z M325.8,836.9h103.9v207.7H325.8V836.9z
				 M429.6,1113.9H325.8v-34.6h103.9V1113.9z"/>
		</defs>
		<clipPath id="SVGID_00000016061957538530049680000011421557413818708901_">
			<use xlink:href="#SVGID_00000025440868396762593910000000966044212596718011_"  style="overflow:visible;"/>
		</clipPath>
		
			<rect x="228.9" y="698.6" style="clip-path:url(#SVGID_00000016061957538530049680000011421557413818708901_);fill:#F5F6F7;" width="521" height="482"/>
		
			<radialGradient id="SVGID_00000085218004177006192560000016043662253831464634_" cx="-3.296070e-02" cy="1165.4263" r="1" gradientTransform="matrix(780.2067 46.9316 24.8152 -412.5363 -28720.5371 481867.3438)" gradientUnits="userSpaceOnUse">
			<stop  offset="0" style="stop-color:#EF98CF;stop-opacity:0.48"/>
			<stop  offset="1" style="stop-color:#FFFFFF;stop-opacity:0"/>
		</radialGradient>
		
			<rect x="228.9" y="698.6" style="clip-path:url(#SVGID_00000016061957538530049680000011421557413818708901_);fill:url(#SVGID_00000085218004177006192560000016043662253831464634_);" width="521" height="482"/>
		
			<radialGradient id="SVGID_00000096050048991492760540000013149974071665814159_" cx="-8.253974e-02" cy="1164.6647" r="1" gradientTransform="matrix(-699.2363 341.3878 217.2341 444.9426 -252312.7344 -517447.1875)" gradientUnits="userSpaceOnUse">
			<stop  offset="0" style="stop-color:#FF837A"/>
			<stop  offset="1" style="stop-color:#FFFFFF;stop-opacity:0"/>
		</radialGradient>
		
			<rect x="228.9" y="698.6" style="clip-path:url(#SVGID_00000016061957538530049680000011421557413818708901_);fill:url(#SVGID_00000096050048991492760540000013149974071665814159_);fill-opacity:0.5;" width="521" height="482"/>
	</g>
	<g>
		<path class="st7" d="M303.4,252.7l-4.5,35.2h-92V282l16.4-7v-88.9l-16.4-7.2v-5.7h88.9l2.2,30.3H292l-14.2-21.7h-39v45.7l42.2-7
			v20.5l-42.2-7.6v45.9h42l16.6-26.6H303.4z"/>
		<path class="st7" d="M413.2,282v5.9h-45.5V282l14.3-7.8v-38.4c0-9.7-4-20.4-16.1-20.4c-11.9,0-21.3,10.7-21.3,24.2v34.7l14.3,7.6
			v5.9h-45.5V282l15.4-7.6v-55.6l-15.4-7.3v-5.7h28.8l-3.8,14.8l4.8,2.2c3.2-7.5,12.6-18,27.1-18c15.8,0,27.5,10,27.5,30.7v38.9
			L413.2,282z"/>
		<path class="st7" d="M506.5,211.5c-5.3,2.4-12.9,6.1-19.9,9.4c2.4,4,3.7,8.4,3.7,13.2c0,16.2-15.1,29.6-34.1,29.6
			c-4.6,0-9.1-0.8-13.1-2.2l-6.2,9.6c1.8,2.7,5.4,4.8,13.1,4.8h26.4c10.8,0,21.3,2.2,25,12.7c3.3,9.7-1.3,19.7-9.9,26.8
			c-8.9,7.2-22.3,11.6-35.7,11.6c-12.6,0-22.1-2.7-28.5-8.1c-6.4-5.3-9.9-12.4-10.4-22.5l15.1-10c-5.7-3.5-8.6-9.7-8.3-17.8l14-9.6
			c-9.2-5.3-15.4-14.5-15.4-24.8c0-16.2,15-29.5,33.8-29.5c9.2,0,17.5,3,23.6,8.1v-7h26.8V211.5z M446,289.7c-3.2,0-6.1-0.3-8.6-1.1
			l-3.2,4.9c-4.8,7-1.8,12.9,4.1,16.6c6.2,3.7,15.3,6.7,24.7,6.7c12.3,0,20.5-3.5,23.6-9.4c5.4-8-0.2-17.8-11.9-17.8
			C466.7,289.5,459.1,289.7,446,289.7z M473.9,232.7c-1.1-11.8-8.1-20.7-19.3-20.1c-11,0.8-16.9,11.3-15.8,22.9
			c1.1,11.8,8.6,21,19.4,20.2C469.6,255,475,244.4,473.9,232.7z"/>
		<path class="st7" d="M558.4,282v5.9h-46.7V282c5.3-2.4,10.4-5.1,15.6-7.6v-87.6c-5.3-2.5-10.4-5.1-15.6-7.8v-5.7H543v101.1
			C548.1,277.1,553.2,279.6,558.4,282z"/>
		<path class="st7" d="M613.4,282v5.9h-46.7V282c5.1-2.4,10.4-4.9,15.4-7.5v-55.7c-5.1-2.4-10.4-4.8-15.4-7.3v-5.7h31.2v68.8
			C603,277.1,608.3,279.6,613.4,282z M578.3,181.9c0-6.2,4.8-11.1,11-11.1c6.2,0,11.1,4.9,11.1,11.1c0,6.1-4.9,11-11.1,11
			C583.1,192.8,578.3,187.9,578.3,181.9z"/>
		<path class="st7" d="M638.7,271.8c4,4.8,9.2,7.6,16.1,7.6c9.2,0,15.1-4.9,15.1-12.9c0-6.4-4.8-10.8-14.6-13.9l-6.8-2.2
			c-13.5-4-24.8-12.1-23.9-25c0.8-12.7,11.8-20.9,25.3-20.7c12.4,0.2,18,3.8,29.6,1.9V236h-7c-0.8-6.4-3-12.1-6.4-16.1
			c-3.3-4.3-8.1-6.8-14-6.8c-6.1,0-12.4,3.5-12.4,10.7c0,7.6,6.2,11.6,16.6,14.3l6.7,1.8c14.3,3.7,22.5,12.7,22.3,23.7
			c-0.2,13.2-9.2,25.3-29.3,25.3c-13.2,0-18.8-4.8-30.1-2.2v-30.3l6.8,0.2C633.4,262.6,635.7,267.9,638.7,271.8z"/>
		<path class="st7" d="M795.5,282v5.9H750V282l14.5-7.8v-36.9c0-11.8-3.3-21.8-16.9-21.8c-12.6,0-20.7,11.8-20.7,24v34.7l14.3,7.8
			v5.9h-45.5V282l15.6-7.8v-87.7l-15.6-7.5v-5.7h31.2v40.6l-1,7.6c3-5.9,11.6-16.7,26.4-16.7c16.6,0,27.7,10.2,27.7,31.7v37.9
			L795.5,282z"/>
	</g>
</g>
</svg>
