<?xml version="1.0" encoding="utf-8"?>
<!-- Generator: Adobe Illustrator 26.5.3, SVG Export Plug-In . SVG Version: 6.00 Build 0)  -->
<svg version="1.1" id="Layer_1" xmlns="http://www.w3.org/2000/svg" xmlns:xlink="http://www.w3.org/1999/xlink" x="0px" y="0px"
	 viewBox="0 0 1000 1330" style="enable-background:new 0 0 1000 1330;" xml:space="preserve">
<style type="text/css">
	.st0{fill:none;}
	.st1{fill:#F5F6F7;}
	.st2{fill:url(#SVGID_1_);}
	.st3{fill:url(#SVGID_00000176758619218579082430000016661736389498166424_);fill-opacity:0.2;}
	.st4{fill-rule:evenodd;clip-rule:evenodd;fill:#20252B;}
	.st5{enable-background:new    ;}
	.st6{fill:#1F252B;}
	.st7{clip-path:url(#SVGID_00000182530211807540252480000014350163978372435876_);fill:#F5F6F7;}
	
		.st8{clip-path:url(#SVGID_00000048493292726548466200000002987412772184468869_);fill:url(#SVGID_00000065040651358985511890000000619306635054281104_);}
	
		.st9{clip-path:url(#SVGID_00000078754938737995628080000001933650845289026689_);fill:url(#SVGID_00000152264953348113937970000009339481389579635332_);fill-opacity:0.6;}
</style>
<rect class="st0" width="1000" height="1330"/>
<rect class="st1" width="1007" height="610"/>
<radialGradient id="SVGID_1_" cx="-1.290854e-02" cy="1165.9447" r="1" gradientTransform="matrix(1508.0009 59.3948 20.6057 -523.1674 -24111.6309 610474.125)" gradientUnits="userSpaceOnUse">
	<stop  offset="0" style="stop-color:#98EFD5;stop-opacity:0.19"/>
	<stop  offset="1" style="stop-color:#FFFFFF;stop-opacity:0"/>
</radialGradient>
<rect class="st2" width="1007" height="610"/>
<radialGradient id="SVGID_00000011724707211976616740000008558887491811675787_" cx="-0.1062" cy="1164.2902" r="1" gradientTransform="matrix(-1351.5013 432.0469 202.2519 632.6714 -234616.4375 -736522.875)" gradientUnits="userSpaceOnUse">
	<stop  offset="0" style="stop-color:#F7F9DF"/>
	<stop  offset="1" style="stop-color:#FFFFFF;stop-opacity:0"/>
</radialGradient>
<rect style="fill:url(#SVGID_00000011724707211976616740000008558887491811675787_);fill-opacity:0.2;" width="1007" height="610"/>
<g id="Layer_1_00000181767876535591147480000001650909883991588281_">
</g>
<rect x="-1.1" y="481.2" class="st4" width="1000" height="847.7"/>
<g class="st5">
	<path class="st6" d="M401.8,198.8v92.3c5.8,2.7,11.5,5.2,17.2,7.7v6.2h-50.8v-6.2c5.8-2.5,11.5-5,17.2-7.7v-92.5
		c-5.7-2.5-11.5-5.2-17.2-7.8v-6H419v6L401.8,198.8z"/>
	<path class="st6" d="M490.1,255.6h-26.6v35.6l17.2,7.7v6.2H430v-6.2l17.2-7.7v-92.8l-17.2-7.5v-6h61.6c22,0.2,38.1,16.9,38.1,35.9
		S513.4,255.6,490.1,255.6z M511.4,220.7c0-13.5-6.3-26.9-25.9-26.9h-21.9v52.8l20.9-0.2C504.5,246.1,511.4,234,511.4,220.7z"/>
	<path class="st6" d="M592.8,193.8V291l17,7.8v6.2h-51.1v-6.2l17.7-8v-97h-21.5l-13.7,22.5h-6.2l2.3-33.2c8.2,0,11.7,1.7,23,1.7
		h48.3c11.9,0,15.9-1.7,23.2-1.7l2.3,33.2h-6.2l-13.9-22.5H592.8z"/>
</g>
<g>
	<g>
		<defs>
			<path id="SVGID_00000159471977238251107670000011836482287127993771_" d="M500,684.5c-132,0-235.4,60.3-235.4,137.3v235.4
				c0,77,103.4,137.3,235.4,137.3s235.4-60.3,235.4-137.3V821.8C735.4,744.8,632,684.5,500,684.5z M696.2,939.5
				c0,23.6-19.3,47.6-53,66c-37.9,20.7-88.8,32.1-143.2,32.1s-105.3-11.4-143.2-32.1c-33.7-18.4-53-42.4-53-66v-40.8
				c41.8,36.8,113.4,60.4,196.2,60.4s154.3-23.7,196.2-60.4V939.5z M356.8,755.8c37.9-20.7,88.8-32.1,143.2-32.1
				s105.3,11.4,143.2,32.1c33.7,18.4,53,42.4,53,66s-19.3,47.6-53,66c-37.9,20.7-88.8,32.1-143.2,32.1s-105.3-11.4-143.2-32.1
				c-33.7-18.4-53-42.4-53-66S323.2,774.2,356.8,755.8z M643.2,1123.2c-37.9,20.7-88.8,32.1-143.2,32.1s-105.3-11.4-143.2-32.1
				c-33.7-18.4-53-42.4-53-66v-40.8c41.8,36.8,113.4,60.4,196.2,60.4s154.3-23.7,196.2-60.4v40.8
				C696.2,1080.8,676.8,1104.9,643.2,1123.2z"/>
		</defs>
		<clipPath id="SVGID_00000183966745414951296640000001422634575757787320_">
			<use xlink:href="#SVGID_00000159471977238251107670000011836482287127993771_"  style="overflow:visible;"/>
		</clipPath>
		
			<rect x="54.5" y="596.7" style="clip-path:url(#SVGID_00000183966745414951296640000001422634575757787320_);fill:#F5F6F7;" width="906.9" height="732.2"/>
	</g>
	<g>
		<defs>
			<path id="SVGID_00000119830950938384671240000003027043441260848015_" d="M500,684.5c-132,0-235.4,60.3-235.4,137.3v235.4
				c0,77,103.4,137.3,235.4,137.3s235.4-60.3,235.4-137.3V821.8C735.4,744.8,632,684.5,500,684.5z M696.2,939.5
				c0,23.6-19.3,47.6-53,66c-37.9,20.7-88.8,32.1-143.2,32.1s-105.3-11.4-143.2-32.1c-33.7-18.4-53-42.4-53-66v-40.8
				c41.8,36.8,113.4,60.4,196.2,60.4s154.3-23.7,196.2-60.4V939.5z M356.8,755.8c37.9-20.7,88.8-32.1,143.2-32.1
				s105.3,11.4,143.2,32.1c33.7,18.4,53,42.4,53,66s-19.3,47.6-53,66c-37.9,20.7-88.8,32.1-143.2,32.1s-105.3-11.4-143.2-32.1
				c-33.7-18.4-53-42.4-53-66S323.2,774.2,356.8,755.8z M643.2,1123.2c-37.9,20.7-88.8,32.1-143.2,32.1s-105.3-11.4-143.2-32.1
				c-33.7-18.4-53-42.4-53-66v-40.8c41.8,36.8,113.4,60.4,196.2,60.4s154.3-23.7,196.2-60.4v40.8
				C696.2,1080.8,676.8,1104.9,643.2,1123.2z"/>
		</defs>
		<clipPath id="SVGID_00000111191556861893510710000017607023239452112295_">
			<use xlink:href="#SVGID_00000119830950938384671240000003027043441260848015_"  style="overflow:visible;"/>
		</clipPath>
		
			<radialGradient id="SVGID_00000064324157907376204210000003389263910715808941_" cx="-0.2546" cy="1166.084" r="1.519" gradientTransform="matrix(831.1761 119.9377 55.3917 -383.8681 -64325.3047 448725.875)" gradientUnits="userSpaceOnUse">
			<stop  offset="0" style="stop-color:#616264;stop-opacity:0.75"/>
			<stop  offset="1" style="stop-color:#FFFFFF;stop-opacity:0"/>
		</radialGradient>
		
			<rect x="54.5" y="596.7" style="clip-path:url(#SVGID_00000111191556861893510710000017607023239452112295_);fill:url(#SVGID_00000064324157907376204210000003389263910715808941_);" width="906.9" height="732.2"/>
	</g>
	<g>
		<defs>
			<path id="SVGID_00000000190613143850214030000002142694441394195857_" d="M500,684.5c-132,0-235.4,60.3-235.4,137.3v235.4
				c0,77,103.4,137.3,235.4,137.3s235.4-60.3,235.4-137.3V821.8C735.4,744.8,632,684.5,500,684.5z M696.2,939.5
				c0,23.6-19.3,47.6-53,66c-37.9,20.7-88.8,32.1-143.2,32.1s-105.3-11.4-143.2-32.1c-33.7-18.4-53-42.4-53-66v-40.8
				c41.8,36.8,113.4,60.4,196.2,60.4s154.3-23.7,196.2-60.4V939.5z M356.8,755.8c37.9-20.7,88.8-32.1,143.2-32.1
				s105.3,11.4,143.2,32.1c33.7,18.4,53,42.4,53,66s-19.3,47.6-53,66c-37.9,20.7-88.8,32.1-143.2,32.1s-105.3-11.4-143.2-32.1
				c-33.7-18.4-53-42.4-53-66S323.2,774.2,356.8,755.8z M643.2,1123.2c-37.9,20.7-88.8,32.1-143.2,32.1s-105.3-11.4-143.2-32.1
				c-33.7-18.4-53-42.4-53-66v-40.8c41.8,36.8,113.4,60.4,196.2,60.4s154.3-23.7,196.2-60.4v40.8
				C696.2,1080.8,676.8,1104.9,643.2,1123.2z"/>
		</defs>
		<clipPath id="SVGID_00000112596127433446943340000011950539950595752355_">
			<use xlink:href="#SVGID_00000000190613143850214030000002142694441394195857_"  style="overflow:visible;"/>
		</clipPath>
		
			<radialGradient id="SVGID_00000114774448802458890060000009077290842256938381_" cx="-0.4334" cy="1164.0496" r="1.519" gradientTransform="matrix(-801.234 341.3918 198.6998 466.3412 -230682.2656 -542046.5)" gradientUnits="userSpaceOnUse">
			<stop  offset="0" style="stop-color:#DFEECB"/>
			<stop  offset="1" style="stop-color:#FFFFFF;stop-opacity:0"/>
		</radialGradient>
		
			<rect x="54.5" y="596.7" style="clip-path:url(#SVGID_00000112596127433446943340000011950539950595752355_);fill:url(#SVGID_00000114774448802458890060000009077290842256938381_);fill-opacity:0.6;" width="906.9" height="732.2"/>
	</g>
</g>
</svg>
