<?xml version="1.0" encoding="utf-8"?>
<!-- Generator: Adobe Illustrator 26.5.3, SVG Export Plug-In . SVG Version: 6.00 Build 0)  -->
<svg version="1.1" id="Layer_1" xmlns="http://www.w3.org/2000/svg" xmlns:xlink="http://www.w3.org/1999/xlink" x="0px" y="0px"
	 viewBox="0 0 1000 1330" style="enable-background:new 0 0 1000 1330;" xml:space="preserve">
<style type="text/css">
	.st0{fill:none;}
	.st1{fill:#F5F6F7;}
	.st2{fill:url(#SVGID_1_);}
	.st3{fill:url(#SVGID_00000052796527097041092070000015018600138271418256_);fill-opacity:0.2;}
	.st4{fill-rule:evenodd;clip-rule:evenodd;fill:#20252B;}
	.st5{clip-path:url(#SVGID_00000118389473848118280780000005190631116212363664_);fill:#F5F6F7;}
	
		.st6{clip-path:url(#SVGID_00000179643761402926066770000006581592766461615274_);fill:url(#SVGID_00000018957731227725670490000002430626146133898412_);}
	
		.st7{clip-path:url(#SVGID_00000150073812867779374510000015638257609862097029_);fill:url(#SVGID_00000030447378582077946740000014761261097248192387_);fill-opacity:0.6;}
	.st8{fill:#1F252B;}
</style>
<rect class="st0" width="1000" height="1330"/>
<rect class="st1" width="1007" height="610"/>
<radialGradient id="SVGID_1_" cx="-8.605692e-03" cy="-0.6298" r="1" gradientTransform="matrix(1508.0009 59.3948 -20.6057 523.1674 -105.9909 819.0814)" gradientUnits="userSpaceOnUse">
	<stop  offset="0" style="stop-color:#98EFD5;stop-opacity:0.19"/>
	<stop  offset="1" style="stop-color:#FFFFFF;stop-opacity:0"/>
</radialGradient>
<rect class="st2" width="1007" height="610"/>
<radialGradient id="SVGID_00000178915286178427792280000008238525689530617228_" cx="-7.081961e-02" cy="0.4732" r="1" gradientTransform="matrix(-1351.5013 432.0469 -202.2519 -632.6714 1007.0345 374.2905)" gradientUnits="userSpaceOnUse">
	<stop  offset="0" style="stop-color:#7AC7FF"/>
	<stop  offset="1" style="stop-color:#FFFFFF;stop-opacity:0"/>
</radialGradient>
<rect style="fill:url(#SVGID_00000178915286178427792280000008238525689530617228_);fill-opacity:0.2;" width="1007" height="610"/>
<g id="Layer_1_00000181767876535591147480000001650909883991588281_">
</g>
<rect x="-1.1" y="481.2" class="st4" width="1000" height="875.1"/>
<g>
	<g>
		<defs>
			<path id="SVGID_00000169555771348654452000000011998499398775733437_" d="M462.3,790.7c0,10.4-8.4,18.8-18.8,18.8H292.7
				c-10.4,0-18.8-8.4-18.8-18.8s8.4-18.8,18.8-18.8h150.7C453.9,771.9,462.3,780.3,462.3,790.7z M443.5,1035.7H387v-56.5
				c0-10.4-8.4-18.8-18.8-18.8s-18.8,8.4-18.8,18.8v56.5h-56.5c-10.4,0-18.8,8.4-18.8,18.8s8.4,18.8,18.8,18.8h56.5v56.5
				c0,10.4,8.4,18.8,18.8,18.8s18.8-8.4,18.8-18.8v-56.5h56.5c10.4,0,18.8-8.4,18.8-18.8S453.9,1035.7,443.5,1035.7z M556.5,1035.7
				h150.7c10.4,0,18.8-8.4,18.8-18.8c0-10.4-8.4-18.8-18.8-18.8H556.5c-10.4,0-18.8,8.4-18.8,18.8
				C537.7,1027.3,546.1,1035.7,556.5,1035.7z M707.3,1073.4H556.5c-10.4,0-18.8,8.4-18.8,18.8s8.4,18.8,18.8,18.8h150.7
				c10.4,0,18.8-8.4,18.8-18.8C726.1,1081.8,717.7,1073.4,707.3,1073.4z M562,860.6c7.4,7.4,19.3,7.4,26.6,0l0,0l43.2-43.2
				l43.2,43.2c7.4,7.4,19.3,7.4,26.7,0s7.4-19.3,0-26.7l-43.2-43.2l43.2-43.2c7.4-7.4,7.4-19.3,0-26.7s-19.3-7.4-26.7,0L631.8,764
				l-43.2-43.2c-7.4-7.4-19.3-7.4-26.7,0s-7.4,19.3,0,26.7l43.2,43.2L562,833.9C554.7,841.3,554.7,853.2,562,860.6L562,860.6z"/>
		</defs>
		<clipPath id="SVGID_00000182499376419804340570000016012904783099378063_">
			<use xlink:href="#SVGID_00000169555771348654452000000011998499398775733437_"  style="overflow:visible;"/>
		</clipPath>
		
			<rect x="53.4" y="566" style="clip-path:url(#SVGID_00000182499376419804340570000016012904783099378063_);fill:#F5F6F7;" width="906.9" height="732.2"/>
	</g>
	<g>
		<defs>
			<path id="SVGID_00000124139232200785385140000000593168291541681072_" d="M462.3,790.7c0,10.4-8.4,18.8-18.8,18.8H292.7
				c-10.4,0-18.8-8.4-18.8-18.8s8.4-18.8,18.8-18.8h150.7C453.9,771.9,462.3,780.3,462.3,790.7z M443.5,1035.7H387v-56.5
				c0-10.4-8.4-18.8-18.8-18.8s-18.8,8.4-18.8,18.8v56.5h-56.5c-10.4,0-18.8,8.4-18.8,18.8s8.4,18.8,18.8,18.8h56.5v56.5
				c0,10.4,8.4,18.8,18.8,18.8s18.8-8.4,18.8-18.8v-56.5h56.5c10.4,0,18.8-8.4,18.8-18.8S453.9,1035.7,443.5,1035.7z M556.5,1035.7
				h150.7c10.4,0,18.8-8.4,18.8-18.8c0-10.4-8.4-18.8-18.8-18.8H556.5c-10.4,0-18.8,8.4-18.8,18.8
				C537.7,1027.3,546.1,1035.7,556.5,1035.7z M707.3,1073.4H556.5c-10.4,0-18.8,8.4-18.8,18.8s8.4,18.8,18.8,18.8h150.7
				c10.4,0,18.8-8.4,18.8-18.8C726.1,1081.8,717.7,1073.4,707.3,1073.4z M562,860.6c7.4,7.4,19.3,7.4,26.6,0l0,0l43.2-43.2
				l43.2,43.2c7.4,7.4,19.3,7.4,26.7,0s7.4-19.3,0-26.7l-43.2-43.2l43.2-43.2c7.4-7.4,7.4-19.3,0-26.7s-19.3-7.4-26.7,0L631.8,764
				l-43.2-43.2c-7.4-7.4-19.3-7.4-26.7,0s-7.4,19.3,0,26.7l43.2,43.2L562,833.9C554.7,841.3,554.7,853.2,562,860.6L562,860.6z"/>
		</defs>
		<clipPath id="SVGID_00000093136743857150914690000011111413714933830274_">
			<use xlink:href="#SVGID_00000124139232200785385140000000593168291541681072_"  style="overflow:visible;"/>
		</clipPath>
		
			<radialGradient id="SVGID_00000163761385872237821060000002292887269756645276_" cx="-0.233" cy="-0.7409" r="1.519" gradientTransform="matrix(831.1761 119.9377 -55.3917 383.8681 206.0267 1354.5349)" gradientUnits="userSpaceOnUse">
			<stop  offset="0" style="stop-color:#98EFD5;stop-opacity:0.75"/>
			<stop  offset="1" style="stop-color:#FFFFFF;stop-opacity:0"/>
		</radialGradient>
		
			<rect x="53.4" y="566" style="clip-path:url(#SVGID_00000093136743857150914690000011111413714933830274_);fill:url(#SVGID_00000163761385872237821060000002292887269756645276_);" width="906.9" height="732.2"/>
	</g>
	<g>
		<defs>
			<path id="SVGID_00000019672146653608691310000009598116158537870240_" d="M462.3,790.7c0,10.4-8.4,18.8-18.8,18.8H292.7
				c-10.4,0-18.8-8.4-18.8-18.8s8.4-18.8,18.8-18.8h150.7C453.9,771.9,462.3,780.3,462.3,790.7z M443.5,1035.7H387v-56.5
				c0-10.4-8.4-18.8-18.8-18.8s-18.8,8.4-18.8,18.8v56.5h-56.5c-10.4,0-18.8,8.4-18.8,18.8s8.4,18.8,18.8,18.8h56.5v56.5
				c0,10.4,8.4,18.8,18.8,18.8s18.8-8.4,18.8-18.8v-56.5h56.5c10.4,0,18.8-8.4,18.8-18.8S453.9,1035.7,443.5,1035.7z M556.5,1035.7
				h150.7c10.4,0,18.8-8.4,18.8-18.8c0-10.4-8.4-18.8-18.8-18.8H556.5c-10.4,0-18.8,8.4-18.8,18.8
				C537.7,1027.3,546.1,1035.7,556.5,1035.7z M707.3,1073.4H556.5c-10.4,0-18.8,8.4-18.8,18.8s8.4,18.8,18.8,18.8h150.7
				c10.4,0,18.8-8.4,18.8-18.8C726.1,1081.8,717.7,1073.4,707.3,1073.4z M562,860.6c7.4,7.4,19.3,7.4,26.6,0l0,0l43.2-43.2
				l43.2,43.2c7.4,7.4,19.3,7.4,26.7,0s7.4-19.3,0-26.7l-43.2-43.2l43.2-43.2c7.4-7.4,7.4-19.3,0-26.7s-19.3-7.4-26.7,0L631.8,764
				l-43.2-43.2c-7.4-7.4-19.3-7.4-26.7,0s-7.4,19.3,0,26.7l43.2,43.2L562,833.9C554.7,841.3,554.7,853.2,562,860.6L562,860.6z"/>
		</defs>
		<clipPath id="SVGID_00000155860864336785657280000003898678636292050820_">
			<use xlink:href="#SVGID_00000019672146653608691310000009598116158537870240_"  style="overflow:visible;"/>
		</clipPath>
		
			<radialGradient id="SVGID_00000079481254132774271040000009579067602945087108_" cx="-0.3718" cy="0.7076" r="1.519" gradientTransform="matrix(-801.234 341.3918 -198.6998 -466.3412 802.9998 1075.9823)" gradientUnits="userSpaceOnUse">
			<stop  offset="0" style="stop-color:#7AC7FF"/>
			<stop  offset="1" style="stop-color:#FFFFFF;stop-opacity:0"/>
		</radialGradient>
		
			<rect x="53.4" y="566" style="clip-path:url(#SVGID_00000155860864336785657280000003898678636292050820_);fill:url(#SVGID_00000079481254132774271040000009579067602945087108_);fill-opacity:0.6;" width="906.9" height="732.2"/>
	</g>
</g>
<g>
	<path class="st8" d="M393.9,191.9v93l17.2,7.3v6.2h-50.8v-6.2l17-7.3v-89.3l-40,102.8h-15.9l-43.8-99.2v85.3l17.2,7.7v6.2h-43.4
		v-6.2l17.2-7.7V192l-17.4-7.8v-6h34.2l46.7,108.2l42.1-108.2h36.9v6L393.9,191.9z"/>
	<path class="st8" d="M503.3,292.2v6.2h-28.4l5.2-16.4l-4.8-2.5c-6.3,12.7-16.5,19.9-29.1,19.9c-17.7,0-28.9-10.4-28.9-24.2
		c0-14,9.9-24,28.2-27.2c10.9-2,20.9-3.3,28.1-4.3v-1.2c0-13-5.5-22.7-18.5-22.7c-15.7,0-17.7,18.7-28.4,18.7h-4.2v-24
		c14.7,1.5,21.7-3.2,35.9-3.2c12.9,0,31.4,6,31.4,31.6v41.9L503.3,292.2z M473.5,251.3c-5,0.8-15,2.3-22.2,3.7
		c-11.5,2.3-16.2,11.2-16,18.5c0,8.2,6.3,14.2,15.4,14.2C460.7,287.7,473.5,280.4,473.5,251.3z"/>
	<path class="st8" d="M563.7,287.2c0,0-5.2,12.2-19.4,12.2c-12.7,0-23.9-8.5-23.9-25.9v-53.4h-14.2v-7.8h14.2l8.3-27.9h8v27.9h24.5
		v7.8h-24.5v53.1c0,10.4,5.2,14.7,12.9,14.7c6.3,0,9.9-4.2,9.9-4.2L563.7,287.2z"/>
	<path class="st8" d="M674.1,292.2v6.2h-47.8v-6.2l15.2-8.2v-38.7c0-12.4-3.5-22.9-17.7-22.9c-13.2,0-21.7,12.4-21.7,25.2V284
		l15,8.2v6.2h-47.8v-6.2l16.4-8.2v-92l-16.4-7.8v-6H602v42.6l-1,8c3.2-6.2,12.2-17.5,27.7-17.5c17.4,0,29.1,10.7,29.1,33.2v39.7
		L674.1,292.2z"/>
	<path class="st8" d="M698.1,281.5c4.2,5,9.7,8,16.9,8c9.7,0,15.9-5.2,15.9-13.5c0-6.7-5-11.4-15.4-14.5l-7.2-2.3
		c-14.2-4.2-26.1-12.7-25-26.2c0.8-13.4,12.4-21.9,26.6-21.7c13,0.2,18.9,4,31.1,2V244h-7.3c-0.8-6.7-3.2-12.7-6.7-16.9
		c-3.5-4.5-8.5-7.2-14.7-7.2c-6.3,0-13,3.7-13,11.2c0,8,6.5,12.2,17.4,15l7,1.8c15,3.8,23.5,13.4,23.4,24.9
		c-0.2,13.9-9.7,26.6-30.7,26.6c-13.9,0-19.7-5-31.6-2.3v-31.7l7.2,0.2C692.6,271.8,695,277.4,698.1,281.5z"/>
</g>
</svg>
