<?xml version="1.0" encoding="utf-8"?>
<!-- Generator: Adobe Illustrator 26.5.3, SVG Export Plug-In . SVG Version: 6.00 Build 0)  -->
<svg version="1.1" id="Layer_1" xmlns="http://www.w3.org/2000/svg" xmlns:xlink="http://www.w3.org/1999/xlink" x="0px" y="0px"
	 viewBox="0 0 1000 1330" style="enable-background:new 0 0 1000 1330;" xml:space="preserve">
<style type="text/css">
	.st0{fill:none;}
	.st1{fill:#F5F6F7;}
	.st2{fill:url(#SVGID_1_);}
	.st3{fill:url(#SVGID_00000097474927704484050570000014176820566001092013_);fill-opacity:0.2;}
	.st4{fill-rule:evenodd;clip-rule:evenodd;fill:#20252B;}
	.st5{enable-background:new    ;}
	.st6{fill:#1F252B;}
	.st7{clip-path:url(#SVGID_00000121251620346799636490000017553501111321387677_);fill:#F5F6F7;}
	
		.st8{clip-path:url(#SVGID_00000121251620346799636490000017553501111321387677_);fill:url(#SVGID_00000136404128547764381530000015604391532646560425_);}
	
		.st9{clip-path:url(#SVGID_00000121251620346799636490000017553501111321387677_);fill:url(#SVGID_00000002353840956253638960000017260814247513299841_);fill-opacity:0.5;}
</style>
<rect class="st0" width="1000" height="1330"/>
<rect class="st1" width="1007" height="610"/>
<radialGradient id="SVGID_1_" cx="-4.302845e-03" cy="1165.3149" r="1" gradientTransform="matrix(1508.0009 59.3948 20.6057 -523.1674 -24111.6309 610144.125)" gradientUnits="userSpaceOnUse">
	<stop  offset="0" style="stop-color:#989BEF;stop-opacity:0.39"/>
	<stop  offset="1" style="stop-color:#FFFFFF;stop-opacity:0"/>
</radialGradient>
<rect class="st2" width="1007" height="610"/>
<radialGradient id="SVGID_00000036963185750358548000000003385972122100722363_" cx="-3.540980e-02" cy="1164.7634" r="1" gradientTransform="matrix(-1351.5013 432.0469 202.2519 632.6714 -234616.4375 -736852.875)" gradientUnits="userSpaceOnUse">
	<stop  offset="0" style="stop-color:#7AA7FF"/>
	<stop  offset="1" style="stop-color:#FFFFFF;stop-opacity:0"/>
</radialGradient>
<rect style="fill:url(#SVGID_00000036963185750358548000000003385972122100722363_);fill-opacity:0.2;" width="1007" height="610"/>
<rect x="0" y="481.2" class="st4" width="1000" height="847.7"/>
<g class="st5">
	<path class="st6" d="M274.3,305h-24.2l-26.9-49.6h-21.9v35.7l17.2,7.7v6.2h-50.8v-6.2l17.2-7.7v-92.7l-17.2-7.7v-6h62.5
		c20.2,0,37.9,15.4,37.9,35.4c0,19.7-16.9,34.6-36.4,35.2l10.7,5L274.3,305z M201.3,246.4H225c17,0,24.5-13.2,24.5-25.7
		s-7.5-26.9-24.5-26.9h-23.7V246.4z"/>
	<path class="st6" d="M296.7,265.9c2.3,16,14.2,27.9,32.2,25.9c12-1.5,18.5-10.5,21.2-15.4l6.2,3.2c-4.3,11.5-17,26.4-36.2,26.4
		c-23,0-41.6-19.7-41.6-44.1s16.9-44.1,40.6-44.1c23.4,0,37.4,16,37.4,37.6v2H296C296,260.2,296.3,263.1,296.7,265.9z M339.1,248.7
		c-1.5-10-9.9-23.9-24.2-21.9c-11.2,1.3-16.7,10.4-18.4,21.9H339.1z"/>
	<path class="st6" d="M414.2,298.8v6.2h-48.9v-6.2c5.5-2.5,10.9-5.3,16.4-8V199c-5.5-2.7-10.9-5.3-16.4-8.2v-6H398v106
		C403.4,293.6,408.7,296.3,414.2,298.8z"/>
	<path class="st6" d="M471.9,298.8v6.2h-48.9v-6.2c5.3-2.5,10.9-5.2,16.2-7.8v-58.4c-5.3-2.5-10.9-5-16.2-7.7v-6h32.7V291
		C461,293.6,466.5,296.3,471.9,298.8z M435.1,193.8c0-6.5,5-11.7,11.5-11.7s11.7,5.2,11.7,11.7c0,6.3-5.2,11.5-11.7,11.5
		S435.1,200.1,435.1,193.8z"/>
	<path class="st6" d="M573.7,224.8c-5.5,2.5-13.5,6.3-20.9,9.9c2.5,4.2,3.8,8.9,3.8,13.9c0,17-15.9,31.1-35.7,31.1
		c-4.8,0-9.5-0.8-13.7-2.3l-6.5,10c1.8,2.8,5.7,5,13.7,5h27.7c11.4,0,22.4,2.3,26.2,13.4c3.5,10.2-1.3,20.7-10.4,28.1
		c-9.4,7.5-23.4,12.2-37.4,12.2c-13.2,0-23.2-2.8-29.9-8.5c-6.7-5.5-10.4-13-10.9-23.5l15.9-10.5c-6-3.7-9-10.2-8.7-18.7l14.7-10
		c-9.7-5.5-16.2-15.2-16.2-26.1c0-17,15.7-30.9,35.4-30.9c9.7,0,18.4,3.2,24.7,8.5v-7.3h28.1V224.8z M510.3,306.8
		c-3.3,0-6.3-0.3-9-1.2l-3.3,5.2c-5,7.3-1.8,13.5,4.3,17.4c6.5,3.8,16,7,25.9,7c12.9,0,21.5-3.7,24.7-9.9
		c5.7-8.3-0.2-18.7-12.5-18.7C532,306.7,524,306.8,510.3,306.8z M539.5,247.1c-1.2-12.4-8.5-21.7-20.2-21
		c-11.5,0.8-17.7,11.9-16.5,24c1.2,12.4,9,22,20.4,21.2C535,270.4,540.7,259.4,539.5,247.1z"/>
	<path class="st6" d="M629.5,298.8v6.2h-48.9v-6.2c5.3-2.5,10.9-5.2,16.2-7.8v-58.4c-5.3-2.5-10.9-5-16.2-7.7v-6h32.7V291
		C618.7,293.6,624.2,296.3,629.5,298.8z M592.8,193.8c0-6.5,5-11.7,11.5-11.7s11.7,5.2,11.7,11.7c0,6.3-5.2,11.5-11.7,11.5
		S592.8,200.1,592.8,193.8z"/>
	<path class="st6" d="M636.7,261.9c0-24.4,19-44.1,42.8-44.1h0.2c23.7,0,42.8,19.7,42.8,44.1s-19,44.1-42.8,44.1h-0.2
		C655.7,306,636.7,286.3,636.7,261.9z M680.8,296.8c16.7,0,22.2-16.4,22.2-31.4c0-20.2-8.7-38.4-24.5-38.4h-0.2
		c-15.9,0-22.2,15.2-22.2,32.7c0,18.7,8,37.1,24.5,37.1H680.8z"/>
	<path class="st6" d="M834.7,298.8v6.2H787v-6.2l15-8.2v-40.2c0-10.2-4.2-21.4-16.9-21.4c-12.5,0-22.4,11.2-22.4,25.4v36.4l15,8v6.2
		H730v-6.2l16.2-8v-58.3l-16.2-7.7v-6h30.2l-4,15.5l5,2.3c3.3-7.8,13.2-18.9,28.4-18.9c16.5,0,28.9,10.5,28.9,32.2v40.7L834.7,298.8
		z"/>
</g>
<g>
	<defs>
		<path id="SVGID_00000097470474560714975910000017835799232857868689_" d="M725,973.2l-81.2-48.7v-43.8c0.1-6.5-3.4-12.5-9-15.7
			L518,798.4v-43.5h36c9.9,0,18-8,18-18c0-9.9-8-18-18-18h-36v-36c0-9.9-8-18-18-18c-9.9,0-18,8-18,18v36h-36c-9.9,0-18,8-18,18
			c0,9.9,8,18,18,18h36v43.5l-116.9,66.7c-5.6,3.2-9,9.3-9,15.7v43.8L275,973.2c-5.4,3.3-8.7,9.1-8.7,15.4v143.8c0,9.9,8,18,18,18
			H464c9.9,0,18-8,18-18v-107.9c0-9.9,8-18,18-18c9.9,0,18,8,18,18v107.9c0,9.9,8,18,18,18h179.8c9.9,0,18-8,18-18V988.6
			C733.7,982.3,730.4,976.5,725,973.2z M302.2,998.8l53.9-32.4v148h-53.9V998.8z M500,970.7c-29.8,0-53.9,24.1-53.9,53.9v89.9h-53.9
			V891.2L500,829.5l107.9,61.6v223.3h-53.9v-89.9C553.9,994.8,529.8,970.7,500,970.7z M697.8,1114.5h-53.9v-148l53.9,32.4V1114.5z"
			/>
	</defs>
	<clipPath id="SVGID_00000144295679589152520870000014391948369078503075_">
		<use xlink:href="#SVGID_00000097470474560714975910000017835799232857868689_"  style="overflow:visible;"/>
	</clipPath>
	
		<rect x="93.2" y="648.5" style="clip-path:url(#SVGID_00000144295679589152520870000014391948369078503075_);fill:#F5F6F7;" width="701.5" height="521.2"/>
	
		<radialGradient id="SVGID_00000116919691900295898560000015411800059026879411_" cx="-0.1079" cy="1165.4482" r="1.1633" gradientTransform="matrix(903.0031 43.6211 18.5463 -383.9273 -21497.8672 448518.5625)" gradientUnits="userSpaceOnUse">
		<stop  offset="0" style="stop-color:#989BEF;stop-opacity:0.78"/>
		<stop  offset="1" style="stop-color:#FFFFFF;stop-opacity:0"/>
	</radialGradient>
	
		<rect x="93.2" y="648.5" style="clip-path:url(#SVGID_00000144295679589152520870000014391948369078503075_);fill:url(#SVGID_00000116919691900295898560000015411800059026879411_);" width="701.5" height="521.2"/>
	
		<radialGradient id="SVGID_00000135678955369282744640000010367063315041106821_" cx="-0.1177" cy="1164.5657" r="1.1633" gradientTransform="matrix(-809.29 317.3039 174.0419 443.8973 -201983.7812 -516223.8125)" gradientUnits="userSpaceOnUse">
		<stop  offset="0" style="stop-color:#2D74FF"/>
		<stop  offset="1" style="stop-color:#FFFFFF;stop-opacity:0"/>
	</radialGradient>
	
		<rect x="93.2" y="648.5" style="clip-path:url(#SVGID_00000144295679589152520870000014391948369078503075_);fill:url(#SVGID_00000135678955369282744640000010367063315041106821_);fill-opacity:0.5;" width="701.5" height="521.2"/>
</g>
</svg>
