<?xml version="1.0" encoding="utf-8"?>
<!-- Generator: Adobe Illustrator 26.5.3, SVG Export Plug-In . SVG Version: 6.00 Build 0)  -->
<svg version="1.1" id="Layer_1" xmlns="http://www.w3.org/2000/svg" xmlns:xlink="http://www.w3.org/1999/xlink" x="0px" y="0px"
	 viewBox="0 0 1000 1330" style="enable-background:new 0 0 1000 1330;" xml:space="preserve">
<style type="text/css">
	.st0{fill:none;}
	.st1{fill:#F5F6F7;}
	.st2{fill:url(#SVGID_1_);}
	.st3{fill:url(#SVGID_00000111870029843177228210000004619039183943557295_);fill-opacity:0.2;}
	.st4{fill-rule:evenodd;clip-rule:evenodd;fill:#20252B;}
	.st5{enable-background:new    ;}
	.st6{fill:#1F252B;}
	.st7{clip-path:url(#SVGID_00000090988836819179680140000001152642324252784312_);fill:#F5F6F7;}
	
		.st8{clip-path:url(#SVGID_00000090988836819179680140000001152642324252784312_);fill:url(#SVGID_00000096034873160337255230000005079043016503000450_);}
	
		.st9{clip-path:url(#SVGID_00000090988836819179680140000001152642324252784312_);fill:url(#SVGID_00000150065119750183773780000000434297502406757774_);fill-opacity:0.6;}
</style>
<rect class="st0" width="1000" height="1330"/>
<rect class="st1" width="1007" height="610"/>
<radialGradient id="SVGID_1_" cx="-4.302845e-03" cy="1165.3149" r="1" gradientTransform="matrix(1508.0009 59.3948 20.6057 -523.1674 -24111.6309 610144.125)" gradientUnits="userSpaceOnUse">
	<stop  offset="0" style="stop-color:#EF98DC;stop-opacity:0.19"/>
	<stop  offset="1" style="stop-color:#FFFFFF;stop-opacity:0"/>
</radialGradient>
<rect class="st2" width="1007" height="610"/>
<radialGradient id="SVGID_00000005964742092207561160000004284730892457008282_" cx="-3.540980e-02" cy="1164.7634" r="1" gradientTransform="matrix(-1351.5013 432.0469 202.2519 632.6714 -234616.4375 -736852.875)" gradientUnits="userSpaceOnUse">
	<stop  offset="0" style="stop-color:#CC7AFF"/>
	<stop  offset="1" style="stop-color:#FFFFFF;stop-opacity:0"/>
</radialGradient>
<rect style="fill:url(#SVGID_00000005964742092207561160000004284730892457008282_);fill-opacity:0.2;" width="1007" height="610"/>
<rect x="0" y="482.2" class="st4" width="1000" height="847.7"/>
<g class="st5">
	<path class="st6" d="M203.4,260.1h7.3c1.2,10.7,3.3,19.7,7.7,26.1c4.5,6.8,11.4,10.9,21.7,10.9c13.4,0,22.7-8.7,22.7-20.4
		c0.2-13.2-8.9-19.5-22.9-24.5l-11.7-4.2c-17.9-6.3-26.6-19.7-26.6-32.2c0-18.5,14.4-31.2,33.7-31.2c20.5,0,23.7,5.5,37.4,2.3
		l0.3,38.2h-7.3c-1-8.9-3.7-16.4-7.8-22c-4.7-6-11.2-9.7-20.2-9.7c-11.4,0-19.4,8-19.5,18.2c0,8.7,5.7,17.7,18.7,22.2l10.9,3.8
		c20.7,7.2,32.1,17.7,31.9,34.9c-0.3,21.5-15.5,34.6-36.6,34.6c-21.5,0-25.9-6.2-39.7-2V260.1z"/>
	<path class="st6" d="M353.5,235c-3.8-4.8-9-7.3-16.2-7.3c-13.5,0-25.9,11-25.9,30.6c0,17.2,8.5,35.1,28.4,35.1
		c6.3,0,11.4-1.8,15.4-4.5c5.2-3.3,8.7-8,10.7-11.9l5.8,2.7C368.1,290.8,356,307,337,307c-24.7,0-42.8-19.7-42.8-44.1
		s17.7-44.1,41.4-44.1c15.2,0,19.4,3.3,32.7,1v33.2h-7.8C359.2,245.5,357,239.4,353.5,235z"/>
	<path class="st6" d="M430,299.8v6.2h-48.9v-6.2c5.3-2.5,10.9-5.2,16.2-7.8v-58.4c-5.3-2.5-10.9-5-16.2-7.7v-6h32.7V292
		C419.2,294.6,424.7,297.3,430,299.8z M393.3,194.8c0-6.5,5-11.7,11.5-11.7s11.7,5.2,11.7,11.7c0,6.3-5.2,11.5-11.7,11.5
		S393.3,201.1,393.3,194.8z"/>
	<path class="st6" d="M455.4,266.9c2.3,16,14.2,27.9,32.2,25.9c12-1.5,18.5-10.5,21.2-15.4l6.2,3.2c-4.3,11.5-17,26.4-36.2,26.4
		c-23,0-41.6-19.7-41.6-44.1s16.9-44.1,40.6-44.1c23.4,0,37.4,16,37.4,37.6v2h-60.5C454.7,261.2,455.1,264.1,455.4,266.9z
		 M497.8,249.7c-1.5-10-9.9-23.9-24.2-21.9c-11.2,1.3-16.7,10.4-18.4,21.9H497.8z"/>
	<path class="st6" d="M628.8,299.8v6.2H581v-6.2l15-8.2v-40.2c0-10.2-4.2-21.4-16.9-21.4c-12.5,0-22.4,11.2-22.4,25.4v36.4l15,8v6.2
		H524v-6.2l16.2-8v-58.3l-16.2-7.7v-6h30.2l-4,15.5l5,2.3c3.3-7.8,13.2-18.9,28.4-18.9c16.5,0,28.9,10.5,28.9,32.2v40.7L628.8,299.8
		z"/>
	<path class="st6" d="M692.7,235c-3.8-4.8-9-7.3-16.2-7.3c-13.5,0-25.9,11-25.9,30.6c0,17.2,8.5,35.1,28.4,35.1
		c6.3,0,11.4-1.8,15.4-4.5c5.2-3.3,8.7-8,10.7-11.9l5.8,2.7c-3.7,11.2-15.7,27.4-34.7,27.4c-24.7,0-42.8-19.7-42.8-44.1
		s17.7-44.1,41.4-44.1c15.2,0,19.4,3.3,32.7,1v33.2h-7.8C698.4,245.5,696.2,239.4,692.7,235z"/>
	<path class="st6" d="M738.6,266.9c2.3,16,14.2,27.9,32.2,25.9c12-1.5,18.5-10.5,21.2-15.4l6.2,3.2c-4.3,11.5-17,26.4-36.2,26.4
		c-23,0-41.6-19.7-41.6-44.1s16.9-44.1,40.6-44.1c23.4,0,37.4,16,37.4,37.6v2H738C738,261.2,738.3,264.1,738.6,266.9z M781.1,249.7
		c-1.5-10-9.9-23.9-24.2-21.9c-11.2,1.3-16.7,10.4-18.4,21.9H781.1z"/>
</g>
<g>
	<defs>
		<path id="SVGID_00000057847586082716573080000012767526715371557813_" d="M719.9,1106.4L575.1,865V731.3h18.8
			c10.4,0,18.8-8.4,18.8-18.8s-8.4-18.8-18.8-18.8H406.1c-10.4,0-18.8,8.4-18.8,18.8s8.4,18.8,18.8,18.8h18.8V865l-144.8,241.4
			c-10.7,17.8-4.9,40.9,12.9,51.5c5.8,3.5,12.5,5.3,19.2,5.3h375.6c20.7,0,37.6-16.8,37.6-37.6
			C725.3,1118.9,723.5,1112.2,719.9,1106.4L719.9,1106.4z M459.7,879.8c1.8-2.9,2.7-6.2,2.7-9.6V731.3h75.1v138.8
			c0,3.4,0.9,6.7,2.7,9.6l89.7,149.6c-28.2,5.6-68.2,3.2-121.5-23.7c-37.3-18.9-72.9-28.9-106.1-30.1L459.7,879.8z M312.2,1125.7
			l67-111.7c33.4-4.1,71.1,4.3,112.2,25.2c44.6,22.6,82.2,30.2,112.7,30.2c15.5,0.1,31-2.1,45.9-6.3l37.8,62.6H312.2z"/>
	</defs>
	<clipPath id="SVGID_00000011733528640233014890000008032122878431463304_">
		<use xlink:href="#SVGID_00000057847586082716573080000012767526715371557813_"  style="overflow:visible;"/>
	</clipPath>
	
		<rect x="190.3" y="669.8" style="clip-path:url(#SVGID_00000011733528640233014890000008032122878431463304_);fill:#F5F6F7;" width="619.4" height="517.5"/>
	
		<radialGradient id="SVGID_00000163776711688260648250000002112615061532573873_" cx="-2.521206e-02" cy="1165.4277" r="1.0736" gradientTransform="matrix(864.0674 46.9316 22.4217 -412.8115 -25984.0723 482187.9375)" gradientUnits="userSpaceOnUse">
		<stop  offset="0" style="stop-color:#EF98DC;stop-opacity:0.43"/>
		<stop  offset="1" style="stop-color:#FFFFFF;stop-opacity:0"/>
	</radialGradient>
	
		<rect x="190.3" y="669.8" style="clip-path:url(#SVGID_00000011733528640233014890000008032122878431463304_);fill:url(#SVGID_00000163776711688260648250000002112615061532573873_);" width="619.4" height="517.5"/>
	
		<radialGradient id="SVGID_00000143597948042624513630000012888991344342819747_" cx="-0.1346" cy="1164.6582" r="1.0736" gradientTransform="matrix(-774.3945 341.3871 203.3805 461.3435 -236163.2969 -536554.25)" gradientUnits="userSpaceOnUse">
		<stop  offset="0" style="stop-color:#CC7AFF"/>
		<stop  offset="1" style="stop-color:#FFFFFF;stop-opacity:0"/>
	</radialGradient>
	
		<rect x="190.3" y="669.8" style="clip-path:url(#SVGID_00000011733528640233014890000008032122878431463304_);fill:url(#SVGID_00000143597948042624513630000012888991344342819747_);fill-opacity:0.6;" width="619.4" height="517.5"/>
</g>
</svg>
