<?xml version="1.0" encoding="utf-8"?>
<!-- Generator: Adobe Illustrator 26.5.3, SVG Export Plug-In . SVG Version: 6.00 Build 0)  -->
<svg version="1.1" id="Layer_2_00000036238102916527035070000015800110333284134275_"
	 xmlns="http://www.w3.org/2000/svg" xmlns:xlink="http://www.w3.org/1999/xlink" x="0px" y="0px" viewBox="0 0 730.5 143.2"
	 style="enable-background:new 0 0 730.5 143.2;" xml:space="preserve">
<style type="text/css">
	.st0{enable-background:new    ;}
	.st1{fill:#FFFFFF;}
</style>
<g id="Layer_1-2">
	<g class="st0">
		<path class="st1" d="M115.6,75.8h5.7c0.9,8.3,2.6,15.3,6,20.2c3.5,5.3,8.8,8.4,16.9,8.4c10.4,0,17.6-6.7,17.6-15.8
			c0.1-10.2-6.9-15.2-17.8-19.1l-9.1-3.2c-13.9-4.9-20.6-15.3-20.6-25c0-14.4,11.1-24.2,26.2-24.2c15.9,0,18.4,4.3,29,1.8l0.3,29.7
			h-5.7c-0.8-6.9-2.9-12.7-6.1-17.1c-3.6-4.7-8.7-7.5-15.7-7.5c-8.8,0-15,6.2-15.2,14.1c0,6.7,4.4,13.7,14.5,17.2l8.4,3
			c16.1,5.6,24.9,13.7,24.8,27.1c-0.3,16.7-12.1,26.8-28.4,26.8c-16.7,0-20.1-4.8-30.9-1.6V75.8z"/>
	</g>
	<g class="st0">
		<path class="st1" d="M228,102.8c0,0-4,9.5-15,9.5c-9.9,0-18.5-6.6-18.5-20.1V50.7h-11v-6.1h11l6.5-21.6h6.2v21.6h19.1v6.1h-19.1
			v41.2c0,8,4,11.4,10,11.4c4.9,0,7.6-3.2,7.6-3.2L228,102.8z"/>
	</g>
	<g class="st0">
		<path class="st1" d="M312.4,106.7v4.8h-23.5l3.1-12.1l-3.9-1.8c-2.3,4.5-9.1,14.6-22.4,14.6c-12.1,0-22-7.8-22-25v-32l-12.6-6
			v-4.7h25.4v41.5c0,9.6,3.2,17.5,13.1,17.5c10.2,0,17.4-9.3,17.4-19.6V55.2l-12.6-6v-4.7h25.4v56L312.4,106.7z"/>
	</g>
	<g class="st0">
		<path class="st1" d="M390.9,106.7v4.8h-24.2l3.4-12.8l-3.9-1.9c-4.1,9.3-11.8,15.6-22.4,15.6c-16.5,0-28.4-14.9-28.4-34
			s11.9-34.5,28.4-34.5c10.1,0,17.6,6.1,21.9,15V29.2l-12.7-6.4V18h25.4v82.6L390.9,106.7z M365.1,77.1c-0.3-12.3-7-26.2-19.1-25.9
			c-12.7,0.3-17.1,13.1-16.9,25.4c0.3,11.7,6,26.7,18.9,26.4C360.6,102.8,365.4,88.8,365.1,77.1z"/>
	</g>
	<g class="st0">
		<path class="st1" d="M468.9,49.3l-11.4,6.1l-21.6,62.9c-6.2,16.6-16.1,23.6-25.9,23.6l-9.6-14.1c0.4-0.4,1.2-0.8,1.7-1.2
			c7.6-5.1,18.3,6.6,25.5-8.6l2.6-6.5h-6.9l-20.9-56.6l-10.8-5.6v-4.7h34.1v4.7l-9.9,5.6l17.6,49L449.9,55l-11.4-5.7v-4.7h30.5V49.3
			z"/>
	</g>
	<g class="st0">
		<path class="st1" d="M553.5,28.9v71.7l13.4,6.1v4.8h-39.5v-4.8l13.5-6.1V67.1h-45.2v33.4l13.4,6.1v4.8h-39.4v-4.8l13.4-6.1V28.9
			l-13.4-6.1v-4.7h39.4v4.7l-13.4,6.1v31.2h45.2V28.9l-13.5-6.1v-4.7h39.5v4.7L553.5,28.9z"/>
	</g>
	<g class="st0">
		<path class="st1" d="M650.5,106.7v4.8h-23.5l3.1-12.1l-3.9-1.8c-2.3,4.5-9.1,14.6-22.4,14.6c-12.1,0-22-7.8-22-25v-32l-12.6-6
			v-4.7h25.4v41.5c0,9.6,3.2,17.5,13.1,17.5c10.2,0,17.4-9.3,17.4-19.6V55.2l-12.6-6v-4.7H638v56L650.5,106.7z"/>
		<path class="st1" d="M725.2,77.5c0,19.1-12.2,34.7-28.6,34.9h-0.1c-10,0-18-4.3-22.9-10.9l-5.4,10.1h-6.1V29.3l-12.6-6.5v-4.7
			h25.4v39.1c4.5-7.8,11.8-13.4,21.4-13.4h0.1C712.8,43.9,725.2,58.5,725.2,77.5z M711.3,78.8c-0.3-12.3-6.7-25.9-19.2-25.5H692
			c-11.3,0.4-17.4,13.2-17.1,25.5c0.1,12.7,7.1,26.7,19.4,26.4h0.1C706.7,104.7,711.6,91.2,711.3,78.8z"/>
	</g>
	<path class="st1" d="M84.2,32.8l-8.7-11.4l-59,18.1L11.4,44c0,0-21.2,45.2,4.7,43.6c0,0,1.6,10.3-16.1,37.8l7.2,9.6l57.4-23.2
		c0,0,21.4-17.4-0.4-41.6C64.1,70.1,58.8,67.4,84.2,32.8L84.2,32.8z M62.1,109.3L6.8,122.3c15.9-26,17.9-35.8,17.9-35.8
		C1.4,88.1,14.2,45.2,14.2,45.2l62.7-10.6C54.1,67.4,56.6,69.9,56.6,69.9C76.3,92.8,62.1,109.3,62.1,109.3L62.1,109.3z"/>
</g>
</svg>
