<?xml version="1.0" encoding="utf-8"?>
<!-- Generator: Adobe Illustrator 26.5.3, SVG Export Plug-In . SVG Version: 6.00 Build 0)  -->
<svg version="1.1" id="Layer_1" xmlns="http://www.w3.org/2000/svg" xmlns:xlink="http://www.w3.org/1999/xlink" x="0px" y="0px"
	 viewBox="0 0 1000 1330" style="enable-background:new 0 0 1000 1330;" xml:space="preserve">
<style type="text/css">
	.st0{fill:none;}
	.st1{fill:#F5F6F7;}
	.st2{fill:url(#SVGID_1_);}
	.st3{fill:url(#SVGID_00000028320671229844913430000016336280890145191073_);fill-opacity:0.2;}
	.st4{fill-rule:evenodd;clip-rule:evenodd;fill:#20252B;}
	.st5{enable-background:new    ;}
	.st6{fill:#1F252B;}
	.st7{clip-path:url(#SVGID_00000166677813953529938040000008382486860797389708_);fill:#F5F6F7;}
	
		.st8{clip-path:url(#SVGID_00000166677813953529938040000008382486860797389708_);fill:url(#SVGID_00000144315370894935852270000000224084584792106637_);}
	
		.st9{clip-path:url(#SVGID_00000166677813953529938040000008382486860797389708_);fill:url(#SVGID_00000018207796917459182070000015201340034786237858_);fill-opacity:0.5;}
</style>
<rect class="st0" width="1000" height="1330"/>
<rect class="st1" width="1007" height="610"/>
<radialGradient id="SVGID_1_" cx="-4.302845e-03" cy="1165.3149" r="1" gradientTransform="matrix(1508.0009 59.3948 20.6057 -523.1674 -24111.6309 610144.125)" gradientUnits="userSpaceOnUse">
	<stop  offset="0" style="stop-color:#AFEF98;stop-opacity:0.19"/>
	<stop  offset="1" style="stop-color:#FFFFFF;stop-opacity:0"/>
</radialGradient>
<rect class="st2" width="1007" height="610"/>
<radialGradient id="SVGID_00000147197041747500092140000016821673083371480487_" cx="-3.540980e-02" cy="1164.7634" r="1" gradientTransform="matrix(-1351.5013 432.0469 202.2519 632.6714 -234616.4375 -736852.875)" gradientUnits="userSpaceOnUse">
	<stop  offset="0" style="stop-color:#E4FF7A"/>
	<stop  offset="1" style="stop-color:#FFFFFF;stop-opacity:0"/>
</radialGradient>
<rect style="fill:url(#SVGID_00000147197041747500092140000016821673083371480487_);fill-opacity:0.2;" width="1007" height="610"/>
<rect x="0" y="481.2" class="st4" width="1000" height="847.7"/>
<g class="st5">
	<path class="st6" d="M310.4,198.6V291l17.2,7.8v6.2h-50.9v-6.2L294,291v-43.1h-58.3V291l17.2,7.8v6.2h-50.8v-6.2l17.2-7.8v-92.3
		l-17.2-7.8v-6h50.8v6l-17.2,7.8v40.2H294v-40.2l-17.4-7.8v-6h50.9v6L310.4,198.6z"/>
	<path class="st6" d="M387,298.8v6.2h-48.9v-6.2c5.3-2.5,10.9-5.2,16.2-7.8v-58.4c-5.3-2.5-10.9-5-16.2-7.7v-6h32.7V291
		C376.2,293.6,381.7,296.3,387,298.8z M350.3,193.8c0-6.5,5-11.7,11.5-11.7s11.7,5.2,11.7,11.7c0,6.3-5.2,11.5-11.7,11.5
		S350.3,200.1,350.3,193.8z"/>
	<path class="st6" d="M413.6,288.1c4.2,5,9.7,8,16.9,8c9.7,0,15.9-5.2,15.9-13.5c0-6.7-5-11.4-15.4-14.5l-7.2-2.3
		c-14.2-4.2-26.1-12.7-25-26.2c0.8-13.4,12.4-21.9,26.6-21.7c13,0.2,18.9,4,31.1,2v30.7H449c-0.8-6.7-3.2-12.7-6.7-16.9
		c-3.5-4.5-8.5-7.2-14.7-7.2c-6.3,0-13,3.7-13,11.2c0,8,6.5,12.2,17.4,15l7,1.8c15,3.8,23.5,13.4,23.4,24.9
		c-0.2,13.9-9.7,26.6-30.7,26.6c-13.9,0-19.7-5-31.6-2.3v-31.7l7.2,0.2C408.1,278.4,410.4,284,413.6,288.1z"/>
	<path class="st6" d="M530.3,293.8c0,0-5.2,12.2-19.4,12.2c-12.7,0-23.9-8.5-23.9-25.9v-53.4h-14.2v-7.8h14.2l8.3-27.9h8v27.9H528
		v7.8h-24.5v53.1c0,10.4,5.2,14.7,12.9,14.7c6.3,0,9.9-4.2,9.9-4.2L530.3,293.8z"/>
	<path class="st6" d="M537.5,261.9c0-24.4,19-44.1,42.8-44.1h0.2c23.7,0,42.8,19.7,42.8,44.1s-19,44.1-42.8,44.1h-0.2
		C556.5,306,537.5,286.3,537.5,261.9z M581.6,296.8c16.7,0,22.2-16.4,22.2-31.4c0-20.2-8.7-38.4-24.5-38.4h-0.2
		c-15.9,0-22.2,15.2-22.2,32.7c0,18.7,8,37.1,24.5,37.1H581.6z"/>
	<path class="st6" d="M697.3,218.8v22.7H696c-10.2,0-12.9-9.2-20.7-9.2c-7.3,0-11.4,9.7-11.9,21.7l0.2,36.9
		c5.5,2.7,11.2,5.3,16.9,7.8v6.2h-49.6v-6.2c5.3-2.5,10.9-5.2,16.2-8v-58.3c-5.3-2.5-10.9-5-16.2-7.7v-6h30.4l-4.3,15.5l5,2.3
		c4-11.4,11.2-18.9,23.4-18.9C690.1,217.8,692.6,218.8,697.3,218.8z"/>
	<path class="st6" d="M800.5,224.8l-14.7,7.8l-27.9,81c-8,21.4-20.7,30.4-33.4,30.4l-12.4-18.2c0.5-0.5,1.5-1,2.2-1.5
		c9.9-6.5,23.5,8.5,32.9-11l3.3-8.3h-8.9l-26.9-73l-13.9-7.2v-6h43.9v6l-12.7,7.2l22.7,63.1l21-63l-14.7-7.3v-6h39.2V224.8z"/>
</g>
<g>
	<defs>
		<path id="SVGID_00000008843693828412804810000014508893591716692146_" d="M707.1,726.9H563c-5.6,0-10.9,2.6-14.3,7l-144,187.3
			L383,899.5c-14.1-14.1-36.9-14.1-50.9,0c0,0,0,0,0,0l-28.6,28.6c-14.1,14.1-14.1,36.9,0,50.9c0,0,0,0,0,0l45,45l-63,63
			c-14.1,14.1-14.1,36.9,0,50.9c0,0,0,0,0,0l28.6,28.5c14.1,14.1,36.8,14.1,50.9,0l63-63l45,45c14.1,14.1,36.9,14.1,50.9,0
			c0,0,0,0,0,0l28.6-28.6c14.1-14.1,14.1-36.9,0-50.9c0,0,0,0,0,0l-21.7-21.7l187.3-144c4.4-3.4,7-8.7,7-14.3v-144
			C725.1,735,717,726.9,707.1,726.9z M339.5,1141l-28.6-28.5l63-63l28.5,28.5L339.5,1141z M498.4,1123L329,953.6l28.6-28.6
			L527,1094.5L498.4,1123z M689.1,880.1l-184,141.5L480.5,997l113.3-113.3c7-7,7-18.4,0-25.5c-7-7-18.4-7-25.5,0l0,0L455,971.5
			l-24.6-24.6l141.5-184h117.2V880.1z"/>
	</defs>
	<clipPath id="SVGID_00000164487955247768820100000014672385538452325266_">
		<use xlink:href="#SVGID_00000008843693828412804810000014508893591716692146_"  style="overflow:visible;"/>
	</clipPath>
	
		<rect x="211.5" y="711" style="clip-path:url(#SVGID_00000164487955247768820100000014672385538452325266_);fill:#F5F6F7;" width="577" height="482"/>
	
		<radialGradient id="SVGID_00000006687071939704850140000002872807006981160604_" cx="5.236537e-03" cy="1165.4003" r="1" gradientTransform="matrix(864.0674 46.9316 22.4217 -412.8115 -25984.0723 482187.9375)" gradientUnits="userSpaceOnUse">
		<stop  offset="0" style="stop-color:#AFEF98;stop-opacity:0.61"/>
		<stop  offset="1" style="stop-color:#FFFFFF;stop-opacity:0"/>
	</radialGradient>
	
		<rect x="211.5" y="711" style="clip-path:url(#SVGID_00000164487955247768820100000014672385538452325266_);fill:url(#SVGID_00000006687071939704850140000002872807006981160604_);" width="577" height="482"/>
	
		<radialGradient id="SVGID_00000002382846163457030170000012300444067117971866_" cx="-9.324241e-02" cy="1164.7113" r="1" gradientTransform="matrix(-774.3945 341.3871 203.3805 461.3435 -236163.2969 -536554.25)" gradientUnits="userSpaceOnUse">
		<stop  offset="0" style="stop-color:#E4FF7A"/>
		<stop  offset="1" style="stop-color:#FFFFFF;stop-opacity:0"/>
	</radialGradient>
	
		<rect x="211.5" y="711" style="clip-path:url(#SVGID_00000164487955247768820100000014672385538452325266_);fill:url(#SVGID_00000002382846163457030170000012300444067117971866_);fill-opacity:0.5;" width="577" height="482"/>
</g>
</svg>
