<?xml version="1.0" encoding="UTF-8"?><svg id="Layer_2" xmlns="http://www.w3.org/2000/svg" viewBox="0 0 730.51 143.23"><defs><style>.cls-1,.cls-2{fill:#fff;}.cls-3{letter-spacing:-.03em;}.cls-2{font-family:StudioFeixenSerifTrial-Regular, 'Studio Feixen Serif Trial';font-size:129.62px;}.cls-4{letter-spacing:-.04em;}.cls-5{letter-spacing:-.05em;}.cls-6{letter-spacing:-.01em;}.cls-7{letter-spacing:-.03em;}</style></defs><g id="Layer_1-2"><text class="cls-2" transform="translate(108.08 111.47)"><tspan x="0" y="0">S</tspan><tspan class="cls-6" x="72.72" y="0">t</tspan><tspan class="cls-7" x="120.03" y="0">u</tspan><tspan class="cls-3" x="201.95" y="0">d</tspan><tspan class="cls-5" x="281.79" y="0">y</tspan><tspan class="cls-4" x="357.11" y="0">H</tspan><tspan x="458.21" y="0">ub</tspan></text><path class="cls-1" d="M84.24,32.78l-8.71-11.4L16.53,39.48l-5.14,4.47s-21.23,45.25,4.69,43.57c0,0,1.56,10.28-16.09,37.76l7.15,9.61,57.42-23.24s21.45-17.43-.45-41.56c0,0-5.29-2.7,20.11-37.31Zm-22.17,76.56L6.82,122.26c15.87-26.05,17.85-35.79,17.85-35.79-23.31,1.59-10.42-41.3-10.42-41.3l62.68-10.59c-22.84,32.81-20.34,35.37-20.34,35.37,19.69,22.87,5.47,39.39,5.47,39.39Z"/></g></svg>